<?xml version="1.0" encoding="UTF-8"?>
<svg version="1.1" xmlns="http://www.w3.org/2000/svg" width="512" height="512">
<path d="M0 0 C0.82688218 -0.00367669 1.65376436 -0.00735338 2.50570357 -0.01114148 C5.26891496 -0.02213018 8.03208868 -0.02601401 10.7953186 -0.02983093 C12.78007119 -0.03609941 14.76482261 -0.04274655 16.74957275 -0.04974365 C23.26302275 -0.07074746 29.77647288 -0.08114524 36.28994751 -0.09111023 C38.53759396 -0.09515969 40.7852403 -0.09927667 43.03288651 -0.10346031 C53.59842177 -0.12250691 64.16395009 -0.13673692 74.72949922 -0.14507228 C86.89693036 -0.15483146 99.06417894 -0.18111885 111.23154581 -0.22157317 C120.65349646 -0.25181634 130.07539503 -0.26654907 139.49739325 -0.26985329 C145.11609548 -0.27219514 150.73460257 -0.281042 156.35325241 -0.30631447 C161.64748024 -0.32974285 166.94138651 -0.33376948 172.23565292 -0.32355309 C174.16724218 -0.32306113 176.09884807 -0.32927987 178.03038788 -0.34310913 C198.03185685 -0.47817407 214.22999081 2.52679902 229.31729126 16.66670227 C238.03694877 25.97255524 243.74974294 38.47069802 243.77573109 51.31760406 C243.78018893 52.34366052 243.78464677 53.36971698 243.7892397 54.42686605 C243.78896316 56.10762661 243.78896316 56.10762661 243.78868103 57.82234192 C243.79235772 59.01800608 243.79603441 60.21367024 243.79982251 61.44556665 C243.80893176 64.76124848 243.81355518 68.07688088 243.81621182 71.3925705 C243.82012252 74.97014124 243.82970037 78.54769776 243.83842468 82.1252594 C243.85816836 90.76402182 243.86825302 99.40278537 243.87715247 108.0415647 C243.88153915 112.11333273 243.886905 116.18509945 243.89214134 120.25686646 C243.90915216 133.79883809 243.923645 147.34080893 243.93089008 160.88278961 C243.93279987 164.39539593 243.93472022 167.90800223 243.93667603 171.42060852 C243.93715977 172.29361172 243.93764351 173.16661492 243.9381419 174.06607276 C243.94643725 188.19930649 243.97176645 202.33245544 244.0042567 216.46565217 C244.03736761 230.98766429 244.05534252 245.50963339 244.05853432 260.03168344 C244.06069578 268.18047755 244.06939084 276.32914805 244.0949955 284.47790527 C244.11675772 291.41969055 244.12472592 298.3613222 244.11502872 305.30313772 C244.1104998 308.84101864 244.11228713 312.37858298 244.13179016 315.91641998 C244.15281141 319.76311959 244.14238572 323.60938894 244.1292572 327.45613098 C244.14571107 329.11012287 244.14571107 329.11012287 244.16249734 330.79752874 C244.04195059 345.50492849 238.70126291 359.0062372 228.76651001 369.83467102 C220.79223477 377.44846532 210.70855847 383.08633995 199.64151001 384.14717102 C199.60026001 385.21967102 199.55901001 386.29217102 199.51651001 387.39717102 C197.85636632 400.0950268 188.74782902 410.08966741 179.26651001 417.95967102 C165.28983746 428.26594782 150.65779135 428.44772341 134.03359985 428.43769836 C132.04825591 428.44368985 130.06291429 428.45049682 128.07757568 428.45805359 C122.70535149 428.47565975 117.33319109 428.48040676 111.96094084 428.48168516 C108.5974954 428.48311062 105.23406598 428.48738773 101.87062454 428.4926796 C90.1163455 428.5111636 78.3621117 428.51935244 66.6078186 428.51777649 C55.68448967 428.51657624 44.76135869 428.53765997 33.83807981 428.56926382 C24.43302565 428.5954966 15.02803585 428.60614082 5.62294543 428.60486567 C0.01772823 428.604358 -5.58731298 428.60993244 -11.19249344 428.63122177 C-16.47037409 428.6507219 -21.74791305 428.65064874 -27.02580643 428.63618851 C-28.95094304 428.63411369 -30.87610172 428.63872101 -32.80120087 428.65090942 C-52.77803669 428.76908683 -68.96735682 425.74843712 -84.03427124 411.62763977 C-92.75392875 402.3217868 -98.46672292 389.82364402 -98.49271107 376.97673798 C-98.49716891 375.95068152 -98.50162675 374.92462506 -98.50621969 373.86747599 C-98.50603532 372.74696895 -98.50585096 371.62646192 -98.50566101 370.47200012 C-98.5093377 369.27633596 -98.51301439 368.0806718 -98.51680249 366.84877539 C-98.52591174 363.53309356 -98.53053516 360.21746116 -98.5331918 356.90177155 C-98.5371025 353.3242008 -98.54668035 349.74664428 -98.55540466 346.16908264 C-98.57514834 337.53032022 -98.585233 328.89155667 -98.59413245 320.25277734 C-98.59851913 316.18100932 -98.60388498 312.10924259 -98.60912132 308.03747559 C-98.62613214 294.49550395 -98.64062498 280.95353311 -98.64787006 267.41155243 C-98.64977985 263.89894612 -98.6517002 260.38633981 -98.65365601 256.87373352 C-98.65413975 256.00073032 -98.65462349 255.12772712 -98.65512189 254.22826928 C-98.66341723 240.09503556 -98.68874643 225.9618866 -98.72123668 211.82868987 C-98.75434759 197.30667775 -98.7723225 182.78470865 -98.7755143 168.2626586 C-98.77767576 160.1138645 -98.78637082 151.96519399 -98.81197548 143.81643677 C-98.8337377 136.87465149 -98.8417059 129.93301984 -98.8320087 122.99120432 C-98.82747978 119.4533234 -98.82926711 115.91575907 -98.84877014 112.37792206 C-98.86979139 108.53122245 -98.8593657 104.6849531 -98.84623718 100.83821106 C-98.85720643 99.7355498 -98.86817567 98.63288854 -98.87947732 97.4968133 C-98.75837636 82.72179664 -93.43370176 68.84706483 -83.04598999 58.27217102 C-77.51161318 53.02829313 -72.38785112 49.34123199 -65.04989624 47.16670227 C-58.38889001 45.350309 -58.38889001 45.350309 -53.88583374 40.54951477 C-53.27360008 38.49548409 -52.72051582 36.42307383 -52.22177124 34.33857727 C-49.22837611 23.27249663 -39.9547368 13.83863096 -30.48348999 7.83467102 C-20.67557902 2.33490786 -11.20096871 -0.00269812 0 0 Z " fill="#42A5F4" transform="translate(183.35848999023438,41.85282897949219)"/>
<path d="M0 0 C1.24416818 -0.00679667 1.24416818 -0.00679667 2.51347107 -0.01373065 C5.26741591 -0.02629796 8.02116105 -0.02475925 10.77513123 -0.02310181 C12.76032767 -0.029092 14.7455218 -0.03589867 16.73071289 -0.04345703 C22.10712837 -0.06107786 27.48348013 -0.06581086 32.85992169 -0.0670886 C36.22553937 -0.0685134 39.59114101 -0.07278929 42.95675468 -0.07808304 C54.71751299 -0.09657294 66.47822605 -0.10475527 78.23899841 -0.10317993 C89.16969095 -0.10198 100.10018556 -0.12305594 111.03082806 -0.15466726 C120.44010831 -0.18090065 129.84932421 -0.19154422 139.25864071 -0.19026911 C144.86722621 -0.1897614 150.47563585 -0.19533825 156.08418465 -0.21662521 C161.36615584 -0.23612595 166.6477856 -0.23605177 171.92976952 -0.22159195 C173.85651784 -0.2195171 175.7832882 -0.22412464 177.70999908 -0.23631287 C197.69228266 -0.35442089 213.88499499 2.66183115 228.95652771 16.78695679 C237.67618522 26.09280976 243.38897939 38.59095254 243.41496754 51.43785858 C243.41942538 52.46391504 243.42388322 53.48997149 243.42847615 54.54712057 C243.42819961 56.22788112 243.42819961 56.22788112 243.42791748 57.94259644 C243.43159417 59.1382606 243.43527086 60.33392476 243.43905896 61.56582117 C243.44816821 64.88150299 243.45279163 68.19713539 243.45544827 71.51282501 C243.45935897 75.09039576 243.46893682 78.66795228 243.47766113 82.24551392 C243.49740481 90.88427633 243.50748947 99.52303989 243.51638892 108.16181922 C243.5207756 112.23358724 243.52614145 116.30535397 243.53137779 120.37712097 C243.54838861 133.91909261 243.56288145 147.46106345 243.57012653 161.00304413 C243.57203632 164.51565044 243.57395667 168.02825675 243.57591248 171.54086304 C243.57639622 172.41386624 243.57687996 173.28686944 243.57737835 174.18632728 C243.5856737 188.319561 243.6110029 202.45270995 243.64349315 216.58590668 C243.67660406 231.10791881 243.69457897 245.62988791 243.69777077 260.15193796 C243.69993223 268.30073206 243.70862729 276.44940257 243.73423195 284.59815979 C243.75599417 291.53994507 243.76396237 298.48157672 243.75426517 305.42339224 C243.74973625 308.96127316 243.75152358 312.49883749 243.77102661 316.0366745 C243.79204786 319.88337411 243.78162217 323.72964345 243.76849365 327.5763855 C243.78494752 329.23037739 243.78494752 329.23037739 243.80173379 330.91778326 C243.68118704 345.62518301 238.34049936 359.12649172 228.40574646 369.95492554 C220.20999633 377.78018286 210.48190606 382.74515944 199.28074646 384.26742554 C199.28188562 383.64777113 199.28302478 383.02811673 199.28419846 382.38968492 C199.35137797 345.63861645 199.40282901 308.88755709 199.43394245 272.13643976 C199.43769443 267.72062892 199.44157741 263.30481822 199.44554138 258.88900757 C199.44632831 258.00992394 199.44711524 257.1308403 199.44792602 256.22511777 C199.46096889 242.00361372 199.48461656 227.78214616 199.51220485 213.56066373 C199.5402902 198.96084785 199.55692933 184.36105104 199.56301194 169.76120925 C199.5671219 160.75718388 199.58008833 151.75326168 199.60449586 142.74926808 C199.6203917 136.56928522 199.62513813 130.38935546 199.62125059 124.20935366 C199.61933502 120.64737765 199.62220695 117.08558154 199.63836288 113.52363777 C199.65579285 109.65229997 199.64967807 105.78119318 199.64151001 101.90982056 C199.65024853 100.79694491 199.65898706 99.68406926 199.66799039 98.5374701 C199.57885329 82.84604766 194.60462443 69.93882006 183.74168396 58.55258179 C169.2368767 45.08383219 152.06664269 43.51726505 133.27879333 43.69979858 C131.21734654 43.70121221 129.15589724 43.70041096 127.0944519 43.69758606 C121.54782983 43.69616277 116.00175828 43.72537521 110.45526314 43.76045585 C104.64040612 43.79190201 98.8255338 43.7946644 93.01060486 43.80058289 C82.02144252 43.81606795 71.03253154 43.85702375 60.04347944 43.90733033 C47.52343057 43.96339056 35.00336914 43.99075213 22.48322582 44.01580751 C-3.25107283 44.06794465 -28.98514905 44.1557824 -54.71925354 44.26742554 C-53.08092546 29.80973623 -45.4088915 19.70309948 -34.40675354 10.45492554 C-24.36453615 3.02403518 -12.32488382 -0.05045132 0 0 Z " fill="#5B6BC0" transform="translate(183.71925354003906,41.732574462890625)"/>
<path d="M0 0 C22.94362972 -0.71355786 41.15837651 0.10212053 58.67578125 16.51953125 C67.39543876 25.82538422 73.10823293 38.323527 73.13422108 51.17043304 C73.13867892 52.1964895 73.14313676 53.22254596 73.14772969 54.27969503 C73.14754533 55.40020207 73.14736097 56.5207091 73.14717102 57.6751709 C73.15084771 58.87083506 73.1545244 60.06649922 73.1583125 61.29839563 C73.16742175 64.61407746 73.17204517 67.92970986 73.17470181 71.24539948 C73.17861251 74.82297022 73.18819036 78.40052674 73.19691467 81.97808838 C73.21665835 90.6168508 73.22674301 99.25561435 73.23564246 107.89439368 C73.24002914 111.9661617 73.24539499 116.03792843 73.25063133 120.10969543 C73.26764215 133.65166707 73.28213499 147.19363791 73.28938007 160.73561859 C73.29128986 164.2482249 73.29321021 167.76083121 73.29516602 171.2734375 C73.29564976 172.1464407 73.2961335 173.0194439 73.2966319 173.91890174 C73.30492724 188.05213547 73.33025644 202.18528442 73.36274669 216.31848115 C73.3958576 230.84049327 73.41383251 245.36246237 73.41702431 259.88451242 C73.41918577 268.03330653 73.42788083 276.18197703 73.45348549 284.33073425 C73.47524771 291.27251953 73.48321591 298.21415118 73.47351871 305.1559667 C73.46898979 308.69384762 73.47077712 312.23141196 73.49028015 315.76924896 C73.5113014 319.61594857 73.50087571 323.46221792 73.48774719 327.30895996 C73.49871644 328.41162122 73.50968568 329.51428248 73.52098733 330.65035772 C73.40044058 345.35775747 68.0597529 358.85906618 58.125 369.6875 C50.15072476 377.3012943 40.06704846 382.93916893 29 384 C28.72615696 374.53530008 28.72615696 374.53530008 31.63671875 371.02734375 C33.03109447 369.90387531 34.44492689 368.80422473 35.875 367.7265625 C43.6150963 361.43773425 48.78318125 349.70847804 50 340 C50.14863457 336.06595292 50.14349204 332.13433885 50.14044189 328.19784546 C50.14341302 327.00062131 50.14638414 325.80339715 50.1494453 324.56989348 C50.15660998 321.25453833 50.1593034 317.93923501 50.16004276 314.62387586 C50.16189792 311.04498038 50.1694476 307.46609604 50.17617798 303.88720703 C50.18974342 296.06469358 50.19578331 288.24218526 50.20018864 280.419662 C50.20295424 275.5319365 50.20719219 270.64421297 50.21169281 265.7564888 C50.22388343 252.21447308 50.23418296 238.67245894 50.2375679 225.13043785 C50.23778747 224.26418961 50.23800703 223.39794138 50.23823325 222.50544319 C50.23845153 221.6371626 50.23866981 220.768882 50.2388947 219.87428987 C50.23933816 218.11492371 50.23978472 216.35555756 50.24023438 214.59619141 C50.24056652 213.28714139 50.24056652 213.28714139 50.24090537 211.95164593 C50.24485153 197.81781695 50.26230089 183.68403959 50.2855939 169.55023055 C50.30933467 155.02706123 50.321771 140.50391778 50.32293582 125.98072875 C50.32385108 117.83144736 50.3295657 109.68223323 50.34775543 101.53297043 C50.36319329 94.59229515 50.36825523 87.65170792 50.36001733 80.71101873 C50.35612375 77.17330854 50.35697671 73.63577545 50.37107468 70.09808731 C50.38625542 66.253335 50.37790881 62.40882879 50.36749268 58.5640564 C50.37554908 57.45916441 50.38360548 56.35427243 50.39190602 55.21589887 C50.29669078 40.12687866 45.6677315 27.12941903 35.2578125 16.06640625 C25.2119616 6.87219323 13.23194826 2.94512199 0 1 C0 0.67 0 0.34 0 0 Z " fill="#3F51B5" transform="translate(354,42)"/>
<path d="M0 0 C20.65248019 -0.9281051 37.24580803 1.13172274 53.1875 15.5625 C64.61058518 27.71421818 68.48025589 42.18893401 68.38095093 58.52368164 C68.3856309 59.72603234 68.39031087 60.92838305 68.39513266 62.16716862 C68.40495469 65.469067 68.40151998 68.77062848 68.39217401 72.07251787 C68.38534113 75.64722926 68.39588558 79.2218977 68.40411377 82.79660034 C68.41740841 89.78544032 68.4145925 96.77418328 68.40587585 103.76302695 C68.39908283 109.44628424 68.39818956 115.12951447 68.4014473 120.81277466 C68.401907 121.62364031 68.40236669 122.43450596 68.40284032 123.2699433 C68.40379956 124.91753412 68.4047722 126.56512494 68.4057581 128.21271574 C68.41429948 143.63873428 68.40449754 159.06469921 68.388357 174.49070895 C68.37495495 187.70835102 68.3772834 200.92591404 68.39111328 214.14355469 C68.40719125 229.5168141 68.41347563 244.89002662 68.40427649 260.26329327 C68.40332091 261.90460395 68.40237779 263.54591464 68.4014473 265.18722534 C68.40098447 265.99464536 68.40052164 266.80206538 68.40004479 267.63395268 C68.39746155 273.30612035 68.4018115 278.97825811 68.40888596 284.65042114 C68.41732583 291.56900545 68.41496877 298.48748774 68.39904372 305.40606046 C68.39119431 308.93165144 68.38801202 312.45707272 68.39799118 315.9826622 C68.40622346 319.81404867 68.39586392 323.64496181 68.38095093 327.47631836 C68.38764309 328.57711762 68.39433526 329.67791689 68.40123022 330.81207371 C68.28728402 345.9686556 63.7009599 358.33256098 53.1875 369.375 C42.53858251 379.41265033 29.43474898 385.17046905 14.7265625 385.09765625 C13.57285156 385.09443359 12.41914063 385.09121094 11.23046875 385.08789062 C10.04066406 385.07951172 8.85085938 385.07113281 7.625 385.0625 C6.41199219 385.05798828 5.19898438 385.05347656 3.94921875 385.04882812 C0.96609493 385.03708354 -2.01692679 385.0206584 -5 385 C-5 384.67 -5 384.34 -5 384 C-4.18917969 383.91363281 -3.37835938 383.82726562 -2.54296875 383.73828125 C11.91870416 381.90321449 25.66375527 375.53554487 35 364 C46.60143794 347.54214617 46.59394554 331.34826628 46.50823963 311.94897985 C46.49703247 308.41247178 46.5091042 304.87602723 46.51808167 301.33952332 C46.53194961 294.42979903 46.52450636 287.52025862 46.50940608 280.61054324 C46.49246947 272.55112122 46.49576578 264.49174403 46.49950016 256.4323097 C46.50536674 242.04630752 46.49125351 227.66039311 46.46655273 213.27441406 C46.44262657 199.33785718 46.43555351 185.40141749 46.44604492 171.46484375 C46.45747123 156.25929999 46.45936374 141.05381032 46.44494683 125.8482672 C46.44342111 124.224962 46.44190075 122.6016568 46.44038582 120.97835159 C46.439628 120.17981388 46.43887019 119.38127616 46.43808941 118.55854034 C46.43336051 112.94997219 46.43518803 107.34142832 46.43945122 101.73286057 C46.44439338 94.89300266 46.4383245 88.05325523 46.41855692 81.21342252 C46.40873058 77.72832706 46.40352901 74.24339929 46.41144943 70.75829506 C46.41743184 66.97079622 46.4048397 63.18378666 46.38768005 59.39633179 C46.3936901 58.30856961 46.39970014 57.22080743 46.40589231 56.10008276 C46.29108916 42.10424357 42.10946519 29.94531991 33.75 18.6875 C24.17870157 9.33373108 13.14398825 3.37022739 0 1 C0 0.67 0 0.34 0 0 Z " fill="#2196F2" transform="translate(316,85)"/>
<path d="M0 0 C1.54117732 -0.00186501 3.0823533 -0.00590369 4.6235199 -0.01194763 C8.79917953 -0.02191012 12.97415878 -0.00077375 17.14971972 0.02653241 C21.52137962 0.05038641 25.8930266 0.04741764 30.26473999 0.0478363 C37.60353088 0.05246186 44.94206204 0.07608898 52.28076172 0.11230469 C60.76619311 0.15406782 69.25139078 0.1716215 77.73691905 0.17492443 C86.77266939 0.17852334 95.80833563 0.19739443 104.84405088 0.22204471 C107.44767637 0.22827364 110.05129546 0.23190971 112.6549263 0.23507881 C116.74420241 0.24097825 120.83331148 0.2572881 124.92251778 0.28168297 C126.42373298 0.28912461 127.9249692 0.29319501 129.42620277 0.29366302 C131.47390993 0.29492037 133.5215955 0.30971142 135.56924438 0.32521057 C137.28868224 0.33218633 137.28868224 0.33218633 139.04285622 0.33930302 C143.08726969 0.69860274 145.11553991 1.6268041 147.78271484 4.66186523 C149.46757108 8.82966751 149.16788052 12.29902203 147.97021484 16.59936523 C145.72432159 19.59388957 144.52152117 20.41559646 140.97021484 21.59936523 C138.88888143 21.69944051 136.80445698 21.73873286 134.72073364 21.74653625 C133.41122742 21.75369156 132.10172119 21.76084686 130.75253296 21.76821899 C129.29791283 21.77105921 127.84329246 21.77377095 126.38867188 21.77636719 C124.85941412 21.78263242 123.33015789 21.78927927 121.80090332 21.79627991 C116.7766221 21.81731132 111.75234059 21.82767974 106.72802734 21.83764648 C104.99864562 21.84169404 103.26926406 21.84581096 101.53988266 21.84999657 C93.4171176 21.86904428 85.29436162 21.88327757 77.17157853 21.89160854 C67.79202819 21.90138723 58.41271345 21.9277249 49.03324616 21.96810943 C41.78475782 21.99824925 34.53633712 22.01307528 27.28778732 22.01638955 C22.95766299 22.01874202 18.62779048 22.02772814 14.29773331 22.05285072 C10.22486527 22.07610002 6.15241544 22.08037755 2.07949829 22.07008934 C0.58512864 22.06959314 -0.90926139 22.07593853 -2.40356827 22.08964539 C-4.44441473 22.10731754 -6.48544214 22.09788811 -8.52633667 22.08711243 C-9.66822889 22.08950078 -10.81012112 22.09188913 -11.98661613 22.09434986 C-15.70011588 21.49033304 -17.35774893 20.19515958 -20.02978516 17.59936523 C-21.22750426 15.20392703 -21.33504765 13.45966569 -21.46728516 10.78686523 C-21.52787109 9.93479492 -21.58845703 9.08272461 -21.65087891 8.20483398 C-20.91954356 5.1369052 -19.73285099 3.60662135 -17.26477432 1.66100883 C-12.03290696 -0.82418375 -5.68980861 -0.06041939 0 0 Z " fill="#E2F1FC" transform="translate(171.02978515625,362.400634765625)"/>
<path d="M0 0 C1.54117732 -0.00186501 3.0823533 -0.00590369 4.6235199 -0.01194763 C8.79917953 -0.02191012 12.97415878 -0.00077375 17.14971972 0.02653241 C21.52137962 0.05038641 25.8930266 0.04741764 30.26473999 0.0478363 C37.60353088 0.05246186 44.94206204 0.07608898 52.28076172 0.11230469 C60.76619311 0.15406782 69.25139078 0.1716215 77.73691905 0.17492443 C86.77266939 0.17852334 95.80833563 0.19739443 104.84405088 0.22204471 C107.44767637 0.22827364 110.05129546 0.23190971 112.6549263 0.23507881 C116.74420241 0.24097825 120.83331148 0.2572881 124.92251778 0.28168297 C126.42373298 0.28912461 127.9249692 0.29319501 129.42620277 0.29366302 C131.47390993 0.29492037 133.5215955 0.30971142 135.56924438 0.32521057 C137.28868224 0.33218633 137.28868224 0.33218633 139.04285622 0.33930302 C143.08726969 0.69860274 145.11553991 1.6268041 147.78271484 4.66186523 C149.46757108 8.82966751 149.16788052 12.29902203 147.97021484 16.59936523 C145.72432159 19.59388957 144.52152117 20.41559646 140.97021484 21.59936523 C138.88888143 21.69944051 136.80445698 21.73873286 134.72073364 21.74653625 C133.41122742 21.75369156 132.10172119 21.76084686 130.75253296 21.76821899 C129.29791283 21.77105921 127.84329246 21.77377095 126.38867188 21.77636719 C124.85941412 21.78263242 123.33015789 21.78927927 121.80090332 21.79627991 C116.7766221 21.81731132 111.75234059 21.82767974 106.72802734 21.83764648 C104.99864562 21.84169404 103.26926406 21.84581096 101.53988266 21.84999657 C93.4171176 21.86904428 85.29436162 21.88327757 77.17157853 21.89160854 C67.79202819 21.90138723 58.41271345 21.9277249 49.03324616 21.96810943 C41.78475782 21.99824925 34.53633712 22.01307528 27.28778732 22.01638955 C22.95766299 22.01874202 18.62779048 22.02772814 14.29773331 22.05285072 C10.22486527 22.07610002 6.15241544 22.08037755 2.07949829 22.07008934 C0.58512864 22.06959314 -0.90926139 22.07593853 -2.40356827 22.08964539 C-4.44441473 22.10731754 -6.48544214 22.09788811 -8.52633667 22.08711243 C-9.66822889 22.08950078 -10.81012112 22.09188913 -11.98661613 22.09434986 C-15.70011588 21.49033304 -17.35774893 20.19515958 -20.02978516 17.59936523 C-21.22750426 15.20392703 -21.33504765 13.45966569 -21.46728516 10.78686523 C-21.52787109 9.93479492 -21.58845703 9.08272461 -21.65087891 8.20483398 C-20.91954356 5.1369052 -19.73285099 3.60662135 -17.26477432 1.66100883 C-12.03290696 -0.82418375 -5.68980861 -0.06041939 0 0 Z " fill="#E2F1FC" transform="translate(171.02978515625,298.400634765625)"/>
<path d="M0 0 C1.54117732 -0.00186501 3.0823533 -0.00590369 4.6235199 -0.01194763 C8.79917953 -0.02191012 12.97415878 -0.00077375 17.14971972 0.02653241 C21.52137962 0.05038641 25.8930266 0.04741764 30.26473999 0.0478363 C37.60353088 0.05246186 44.94206204 0.07608898 52.28076172 0.11230469 C60.76619311 0.15406782 69.25139078 0.1716215 77.73691905 0.17492443 C86.77266939 0.17852334 95.80833563 0.19739443 104.84405088 0.22204471 C107.44767637 0.22827364 110.05129546 0.23190971 112.6549263 0.23507881 C116.74420241 0.24097825 120.83331148 0.2572881 124.92251778 0.28168297 C126.42373298 0.28912461 127.9249692 0.29319501 129.42620277 0.29366302 C131.47390993 0.29492037 133.5215955 0.30971142 135.56924438 0.32521057 C137.28868224 0.33218633 137.28868224 0.33218633 139.04285622 0.33930302 C143.08726969 0.69860274 145.11553991 1.6268041 147.78271484 4.66186523 C149.46757108 8.82966751 149.16788052 12.29902203 147.97021484 16.59936523 C145.72432159 19.59388957 144.52152117 20.41559646 140.97021484 21.59936523 C138.88888143 21.69944051 136.80445698 21.73873286 134.72073364 21.74653625 C133.41122742 21.75369156 132.10172119 21.76084686 130.75253296 21.76821899 C129.29791283 21.77105921 127.84329246 21.77377095 126.38867188 21.77636719 C124.85941412 21.78263242 123.33015789 21.78927927 121.80090332 21.79627991 C116.7766221 21.81731132 111.75234059 21.82767974 106.72802734 21.83764648 C104.99864562 21.84169404 103.26926406 21.84581096 101.53988266 21.84999657 C93.4171176 21.86904428 85.29436162 21.88327757 77.17157853 21.89160854 C67.79202819 21.90138723 58.41271345 21.9277249 49.03324616 21.96810943 C41.78475782 21.99824925 34.53633712 22.01307528 27.28778732 22.01638955 C22.95766299 22.01874202 18.62779048 22.02772814 14.29773331 22.05285072 C10.22486527 22.07610002 6.15241544 22.08037755 2.07949829 22.07008934 C0.58512864 22.06959314 -0.90926139 22.07593853 -2.40356827 22.08964539 C-4.44441473 22.10731754 -6.48544214 22.09788811 -8.52633667 22.08711243 C-9.66822889 22.08950078 -10.81012112 22.09188913 -11.98661613 22.09434986 C-15.70011588 21.49033304 -17.35774893 20.19515958 -20.02978516 17.59936523 C-21.22750426 15.20392703 -21.33504765 13.45966569 -21.46728516 10.78686523 C-21.52787109 9.93479492 -21.58845703 9.08272461 -21.65087891 8.20483398 C-20.91954356 5.1369052 -19.73285099 3.60662135 -17.26477432 1.66100883 C-12.03290696 -0.82418375 -5.68980861 -0.06041939 0 0 Z " fill="#E2F1FC" transform="translate(171.02978515625,234.400634765625)"/>
<path d="M0 0 C1.54117732 -0.00186501 3.0823533 -0.00590369 4.6235199 -0.01194763 C8.79917953 -0.02191012 12.97415878 -0.00077375 17.14971972 0.02653241 C21.52137962 0.05038641 25.8930266 0.04741764 30.26473999 0.0478363 C37.60353088 0.05246186 44.94206204 0.07608898 52.28076172 0.11230469 C60.76619311 0.15406782 69.25139078 0.1716215 77.73691905 0.17492443 C86.77266939 0.17852334 95.80833563 0.19739443 104.84405088 0.22204471 C107.44767637 0.22827364 110.05129546 0.23190971 112.6549263 0.23507881 C116.74420241 0.24097825 120.83331148 0.2572881 124.92251778 0.28168297 C126.42373298 0.28912461 127.9249692 0.29319501 129.42620277 0.29366302 C131.47390993 0.29492037 133.5215955 0.30971142 135.56924438 0.32521057 C137.28868224 0.33218633 137.28868224 0.33218633 139.04285622 0.33930302 C143.08726969 0.69860274 145.11553991 1.6268041 147.78271484 4.66186523 C149.46757108 8.82966751 149.16788052 12.29902203 147.97021484 16.59936523 C145.72432159 19.59388957 144.52152117 20.41559646 140.97021484 21.59936523 C138.88888143 21.69944051 136.80445698 21.73873286 134.72073364 21.74653625 C133.41122742 21.75369156 132.10172119 21.76084686 130.75253296 21.76821899 C129.29791283 21.77105921 127.84329246 21.77377095 126.38867188 21.77636719 C124.85941412 21.78263242 123.33015789 21.78927927 121.80090332 21.79627991 C116.7766221 21.81731132 111.75234059 21.82767974 106.72802734 21.83764648 C104.99864562 21.84169404 103.26926406 21.84581096 101.53988266 21.84999657 C93.4171176 21.86904428 85.29436162 21.88327757 77.17157853 21.89160854 C67.79202819 21.90138723 58.41271345 21.9277249 49.03324616 21.96810943 C41.78475782 21.99824925 34.53633712 22.01307528 27.28778732 22.01638955 C22.95766299 22.01874202 18.62779048 22.02772814 14.29773331 22.05285072 C10.22486527 22.07610002 6.15241544 22.08037755 2.07949829 22.07008934 C0.58512864 22.06959314 -0.90926139 22.07593853 -2.40356827 22.08964539 C-4.44441473 22.10731754 -6.48544214 22.09788811 -8.52633667 22.08711243 C-9.66822889 22.08950078 -10.81012112 22.09188913 -11.98661613 22.09434986 C-15.70011588 21.49033304 -17.35774893 20.19515958 -20.02978516 17.59936523 C-21.22750426 15.20392703 -21.33504765 13.45966569 -21.46728516 10.78686523 C-21.52787109 9.93479492 -21.58845703 9.08272461 -21.65087891 8.20483398 C-20.91954356 5.1369052 -19.73285099 3.60662135 -17.26477432 1.66100883 C-12.03290696 -0.82418375 -5.68980861 -0.06041939 0 0 Z " fill="#E2F1FC" transform="translate(171.02978515625,170.400634765625)"/>
</svg>
